<svg xmlns="http://www.w3.org/2000/svg" viewBox="0 0 400 400" fill="#FFFFFF">
  <circle cx="257.26" cy="285.71" r="28.57"/>
  <path d="M56.93,142.82c0-50.09,43.1-90.3,94.17-85.5,44.5,4.19,77.61,43.31,77.61,88.01v26.34c0,31.44,25.49,56.93,56.93,56.93h0v-85.79C285.64,64.27,221.37,0,142.82,0h0C64.27,0,0,64.27,0,142.82v200.04s0,0,0,0c31.44,0,56.93-25.49,56.93-56.93v-143.1Z"/>
  <circle cx="142.74" cy="114.29" r="28.57"/>
  <path d="M343.07,257.18c0,50.09-43.1,90.3-94.17,85.5-44.5-4.19-77.61-43.31-77.61-88.01v-26.34c0-31.44-25.49-56.93-56.93-56.93h0v85.79c0,78.55,64.27,142.82,142.82,142.82h0c78.55,0,142.82-64.27,142.82-142.82V57.14s0,0,0,0c-31.44,0-56.93,25.49-56.93,56.93v143.1Z"/>
</svg>
